# AST/ASF file generated using VICON BodyLanguage
# -----------------------------------------------
:version 1.10
:name VICON
:units
  mass 1.0
  length 0.45
  angle deg
:documentation
   .ast/.asf automatically generated from VICON data using
   VICON BodyBuilder and BodyLanguage model FoxedUp or BRILLIANT.MOD
:root
   order TX TY TZ RX RY RZ
   axis XYZ
   position 0 0 0  
   orientation 0 0 0 
:bonedata
  begin
     id 1 
     name lhipjoint
     direction 0.78388 -0.462562 0.414208 
     length 3.01181 
     axis 0 0 0  XYZ
  end
  begin
     id 2 
     name lfemur
     direction 0.34202 -0.939693 0  
     length 6.04673  
     axis 0 0 20  XYZ
    dof rx ry rz
    limits (-160.0 20.0)
           (-70.0 70.0)
           (-60.0 70.0)
  end
  begin
     id 3 
     name ltibia
     direction 0.34202 -0.939693 0   
     length 7.211   
     axis 0 0 20   XYZ
    dof rx
    limits (-10.0 170.0)
  end
  begin
     id 4 
     name lfoot
     direction 0.121887 -0.334882 0.934344   
     length 2.13567   
     axis -90 7.62852e-016 20   XYZ
    dof rx rz
    limits (-45.0 90.0)
           (-70.0 20.0)
  end
  begin
     id 5 
     name ltoes
     direction 1.53555e-011 -4.2179e-011 1   
     length 1.05957   
     axis -90 7.62852e-016 20   XYZ
    dof rx
    limits (-90.0 20.0)
  end
  begin
     id 6 
     name rhipjoint
     direction -0.769387 -0.475875 0.426129   
     length 2.92756  
     axis 0 0 0  XYZ 
  end
  begin
     id 7 
     name rfemur
     direction -0.34202 -0.939693 0   
     length 6.35468   
     axis 0 0 -20   XYZ
    dof rx ry rz
    limits (-160.0 20.0)
           (-70.0 70.0)
           (-70.0 60.0)
  end
  begin
     id 8 
     name rtibia
     direction -0.34202 -0.939693 0   
     length 7.37886   
     axis 0 0 -20   XYZ
    dof rx
    limits (-10.0 170.0)
 end
 begin
     id 9 
     name rfoot
     direction -0.101763 -0.279592 0.954711   
     length 2.21478  
     axis -90 -7.62852e-016 -20   XYZ
    dof rx rz
    limits (-45.0 90.0)
           (-20.0 70.0)
  end
  begin
     id 10 
     name rtoes
     direction -1.53494e-011 -4.21851e-011 1   
     length 1.10506   
     axis -90 -7.62852e-016 -20   XYZ
    dof rx
    limits (-90.0 20.0)
  end
  begin
     id 11 
     name lowerback
     direction 0.00747405 0.999267 0.0375481   
     length 2.13259   
     axis 0 0 0   XYZ
    dof rx ry rz
    limits (-20.0 45.0)
           (-30.0 30.0)
           (-30.0 30.0)
  end
  begin
     id 12 
     name upperback
     direction 0.00661626 0.996177 0.0871029   
     length 2.10528   
     axis 0 0 0   XYZ
    dof rx ry rz
    limits (-20.0 45.0)
           (-30.0 30.0)
           (-30.0 30.0)
  end
  begin
     id 13 
     name thorax
     direction 0.00320659 0.997679 0.0680167   
     length 2.11338   
     axis 0 0 0   XYZ
    dof rx ry rz
    limits (-20.0 45.0)
           (-30.0 30.0)
           (-30.0 30.0)
  end
  begin
     id 14 
     name lowerneck
     direction 0.0374841 0.973033 0.227602   
     length 1.42765   
     axis 0 0 0   XYZ
    dof rx ry rz
    limits (-20.0 45.0)
           (-30.0 30.0)
           (-30.0 30.0)
  end
  begin
     id 15 
     name upperneck
     direction 0.00481585 0.989155 -0.146795   
     length 1.47593   
     axis 0 0 0   XYZ
    dof rx ry rz
    limits (-20.0 45.0)
           (-30.0 30.0)
           (-30.0 30.0)
  end
  begin
     id 16
     name head
     direction -0.00292522 0.997206 -0.0746423  
     length 1.48116  
     axis 0 0 0   XYZ
    dof rx ry rz
    limits (-20.0 45.0)
           (-30.0 30.0)
           (-30.0 30.0)
  end
  begin
     id 17 
     name lclavicle
     direction 0.951444 0.305606 0.0368784  
     length 3.01855  
     axis 0 0 0   XYZ
    dof ry rz
    limits (-20.0 10.0)
           (0.0 20.0)
  end
  begin
     id 18 
     name lhumerus
     direction 1 -4.48977e-011 2.61664e-027   
     length 5.52731   
     axis 180 -30 -90   XYZ
    dof rx ry rz
    limits (-60.0 90.0)
           (-90.0 90.0)
           (-90.0 90.0)
  end
  begin
     id 19
     name lradius
     direction 1 -4.48944e-011 8.22157e-027   
     length 3.11059   
     axis 180 -30 -90   XYZ
    dof rx
    limits (-10.0 170.0)
  end
  begin
     id 20
     name lwrist
     direction 1 -4.48976e-011 1.5779e-026   
     length 1.5553   
     axis -1.15221e-014 90 90   XYZ
    dof ry
    limits (-180.0 0.0)
 end
  begin
     id 21 
     name lhand
     direction 1 -4.49025e-011 3.1558e-026   
     length 0.419626   
     axis -2.01367e-014 90 90   XYZ
    dof rx rz
    limits (-90.0 90.0)
           (-45.0 45.0)
  end
  begin
     id 22 
     name lfingers
     direction 1 -4.4904e-011 6.31161e-026   
     length 0.338313   
     axis -4.02734e-014 90 90   XYZ
    dof rx
    limits (0.0 90.0)
  end
  begin
     id 23
     name lthumb
     direction 0.707107 -6.35004e-011 0.707107   
     length 0.485752   
     axis -90 45 2.85299e-015   XYZ
    dof rx rz
    limits (-45.0 45.0)
           (-45.0 45.0)
  end
  begin
     id 24 
     name rclavicle
     direction -0.968876 0.223791 0.105816   
     length 3.04177  
     axis 0 0 0   XYZ 
    dof ry rz
    limits (-10.0 20.0)
           (-20.0 0.0)
  end
  begin
     id 25 
     name rhumerus
     direction -1 -4.48962e-011 -1.01384e-027  
     length 5.25396   
     axis 180 30 90   XYZ
    dof rx ry rz
    limits (-90.0 60.0)
           (-90.0 90.0)
           (-90.0 90.0)
  end
  begin
     id 26 
     name rradius
     direction -1 -4.48955e-011 8.88542e-027   
     length 3.10567   
     axis 180 30 90   XYZ
    dof rx
    limits (-10.0 170.0)
  end
  begin
     id 27 
     name rwrist
     direction -1 -4.48994e-011 1.5779e-026   
     length 1.55283   
     axis -1.15221e-014 -90 -90   XYZ
    dof ry
    limits (-180.0 0.0)
  end
  begin
     id 28
     name rhand
     direction -1 -4.48891e-011 3.1558e-026   
     length 0.498676   
     axis -2.01367e-014 -90 -90   XYZ
    dof rx rz
    limits (-90.0 90.0)
           (-45.0 45.0)
  end
  begin
     id 29
     name rfingers
     direction -1 -4.48972e-011 6.31161e-026   
     length 0.402045   
     axis -4.02734e-014 -90 -90   XYZ
    dof rx
    limits (0.0 90.0)
  end
  begin
     id 30
     name rthumb
     direction -0.707107 -6.34849e-011 0.707107   
     length 0.577259   
     axis -90 -45 -2.85299e-015   XYZ
    dof rx rz
    limits (-45.0 45.0)
           (-45.0 45.0)
  end
:hierarchy
  begin
    root lhipjoint rhipjoint lowerback
    lhipjoint lfemur
    lfemur ltibia
    ltibia lfoot
    lfoot ltoes
    rhipjoint rfemur
    rfemur rtibia
    rtibia rfoot
    rfoot rtoes
    lowerback upperback
    upperback thorax
    thorax lowerneck lclavicle rclavicle
    lowerneck upperneck
    upperneck head
    lclavicle lhumerus
    lhumerus lradius
    lradius lwrist
    lwrist lhand lthumb
    lhand lfingers
    rclavicle rhumerus
    rhumerus rradius
    rradius rwrist
    rwrist rhand rthumb
    rhand rfingers
  end

#!OML:ASF H:\Pregnant\Project 1\Capture day 1\Session 1\femalepreg.ASF
:FULLY-SPECIFIED
:DEGREES
1
root 7.50751 20.327 6.37704 -159.986 2.19568 -178.413
lowerback -12.9117 1.53384 -2.01476
upperback -6.0076 3.04542 -0.949619
thorax 0.88897 1.87096 0.557461
lowerneck -28.3791 10.0256 8.16647
upperneck 24.2748 12.3753 -5.8893
head 13.8473 5.21829 -1.1585
rclavicle 1.59773e-014 -2.78299e-015
rhumerus -35.5123 -10.0725 -76.1672
rradius 34.4572
rwrist -3.91862
rhand -11.5504 -19.1357
rfingers 7.12502
rthumb 14.4902 -48.6097
lclavicle 1.59773e-014 -2.78299e-015
lhumerus -39.9431 1.34191 75.8398
lradius 24.1005
lwrist 39.4559
lhand -26.5254 0.468462
lfingers 7.12502
lthumb 0.038315 30.4482
rfemur -32.6006 17.4991 18.6653
rtibia 34.8868
rfoot -18.3501 -11.0004
rtoes -8.49366
lfemur -28.1318 -6.61752 -22.3916
ltibia 23.6358
lfoot -7.07627 15.2409
ltoes -35.3637
2
root 7.49636 20.3261 6.37796 -159.898 2.06298 -178.5
lowerback -13.0679 1.42671 -2.09811
upperback -6.04249 2.92763 -0.864876
thorax 0.930569 1.81998 0.682306
lowerneck -27.8127 10.2836 8.55386
upperneck 24.0906 12.6872 -6.13623
head 13.738 5.37041 -1.26653
rclavicle 2.25124e-014 -4.77083e-015
rhumerus -35.5725 -9.91166 -76.1937
rradius 34.3119
rwrist -3.9122
rhand -11.4328 -18.9132
rfingers 7.12502
rthumb 14.6036 -48.3791
lclavicle 2.25124e-014 -4.77083e-015
lhumerus -40.338 1.45359 75.67
lradius 24.3229
lwrist 39.8231
lhand -26.7644 0.539385
lfingers 7.12502
lthumb -0.192529 30.519
rfemur -32.7436 17.5137 18.5024
rtibia 35.0139
rfoot -18.4254 -11.3122
rtoes -8.82084
lfemur -28.1908 -6.72896 -22.4894
ltibia 23.5136
lfoot -7.02172 15.1131
ltoes -35.4055
3
root 7.48512 20.3253 6.37785 -159.798 1.90045 -178.581
lowerback -13.2493 1.3356 -2.15378
upperback -6.06626 2.82923 -0.810941
thorax 1.00028 1.77721 0.763457
lowerneck -27.2882 10.5538 8.98483
upperneck 23.9105 12.9947 -6.366
head 13.6426 5.52755 -1.37353
rclavicle 3.83157e-014 -7.95139e-016
rhumerus -35.6948 -9.80354 -76.2382
rradius 34.2739
rwrist -3.86497
rhand -11.4748 -19.0226
rfingers 7.12502
rthumb 14.5631 -48.4914
lclavicle 3.83157e-014 -7.95139e-016
lhumerus -40.6422 1.44556 75.4819
lradius 24.4123
lwrist 39.9272
lhand -26.3674 0.0662329
lfingers 7.12502
lthumb 0.190863 30.0459
rfemur -32.8822 17.4715 18.3599
rtibia 35.1222
rfoot -18.4877 -11.4945
rtoes -8.79165
lfemur -28.2981 -6.83191 -22.5806
ltibia 23.4577
lfoot -7.02696 14.9747
ltoes -35.3913
4
root 7.4752 20.3237 6.37661 -159.705 1.67856 -178.609
lowerback -13.364 1.43541 -2.08227
upperback -6.08842 2.96614 -0.817872
thorax 1.03862 1.84826 0.739174
lowerneck -27.1479 10.6827 9.04221
upperneck 23.9343 13.1593 -6.33298
head 13.6413 5.61151 -1.33803
rclavicle -3.4924e-014 -3.97569e-016
rhumerus -35.7772 -10.4969 -75.8564
rradius 33.8126
rwrist -3.61377
rhand -11.5806 -18.6532
rfingers 7.12502
rthumb 14.4612 -48.1294
lclavicle -3.4924e-014 -3.97569e-016
lhumerus -40.664 1.13356 75.5196
lradius 24.533
lwrist 40.1123
lhand -26.3933 0.114154
lfingers 7.12502
lthumb 0.165873 30.0938
rfemur -32.9995 17.5309 18.2688
rtibia 35.2277
rfoot -18.5213 -11.8197
rtoes -8.79446
lfemur -28.4061 -6.91865 -22.607
ltibia 23.4032
lfoot -7.0438 14.7822
ltoes -35.4141
5
root 7.46483 20.3223 6.37584 -159.609 1.47349 -178.658
lowerback -13.5121 1.44354 -2.06943
upperback -6.11332 2.99034 -0.79461
thorax 1.09065 1.86508 0.765373
lowerneck -26.813 10.8803 9.272
upperneck 23.8619 13.3958 -6.41182
head 13.5933 5.73403 -1.36413
rclavicle -1.43001e-014 1.39149e-014
rhumerus -35.8861 -10.8302 -75.6578
rradius 33.5377
rwrist -3.47238
rhand -11.6317 -18.4579
rfingers 7.12502
rthumb 14.4119 -47.9375
lclavicle -1.43001e-014 1.39149e-014
lhumerus -40.8116 0.974544 75.4517
lradius 24.6608
lwrist 40.297
lhand -26.313 0.00192789
lfingers 7.12502
lthumb 0.243438 29.9815
rfemur -33.1208 17.5461 18.1606
rtibia 35.3318
rfoot -18.5701 -12.1023
rtoes -8.82201
lfemur -28.5261 -7.01815 -22.6561
ltibia 23.372
lfoot -7.0638 14.614
ltoes -35.4295
6
root 7.45466 20.3205 6.37478 -159.514 1.24739 -178.699
lowerback -13.6636 1.46156 -2.04515
upperback -6.13742 3.02676 -0.778241
thorax 1.14582 1.8878 0.780017
lowerneck -26.4911 11.0766 9.48927
upperneck 23.7975 13.629 -6.46563
head 13.5484 5.85741 -1.37891
rclavicle -2.62396e-014 -8.34896e-015
rhumerus -36.0244 -11.2121 -75.4307
rradius 33.2747
rwrist -3.34088
rhand -11.6927 -18.2682
rfingers 7.12502
rthumb 14.3531 -47.752
lclavicle -2.62396e-014 -8.34896e-015
lhumerus -40.9196 0.792114 75.391
lradius 24.7845
lwrist 40.4677
lhand -26.2219 -0.113208
lfingers 7.12502
lthumb 0.33146 29.8663
rfemur -33.2345 17.5603 18.0654
rtibia 35.4307
rfoot -18.6166 -12.3928
rtoes -8.82378
lfemur -28.6631 -7.12221 -22.6927
ltibia 23.3683
lfoot -7.09937 14.439
ltoes -35.4474
7
root 7.44471 20.3185 6.3735 -159.418 0.999929 -178.735
lowerback -13.8183 1.4807 -2.01708
upperback -6.16172 3.0647 -0.763947
thorax 1.20269 1.91138 0.790904
lowerneck -26.1665 11.2763 9.70841
upperneck 23.7355 13.8647 -6.50735
head 13.5038 5.98406 -1.38898
rclavicle -3.19298e-015 1.11319e-014
rhumerus -36.2033 -11.5985 -75.1908
rradius 33.0541
rwrist -3.2425
rhand -11.7451 -18.1001
rfingers 7.12502
rthumb 14.3027 -47.5874
lclavicle -3.19298e-015 1.11319e-014
lhumerus -41.0003 0.60656 75.3313
lradius 24.9126
lwrist 40.6379
lhand -26.153 -0.215029
lfingers 7.12502
lthumb 0.398006 29.7643
rfemur -33.345 17.5723 17.9823
rtibia 35.5356
rfoot -18.6676 -12.6982
rtoes -8.82343
lfemur -28.8061 -7.23462 -22.7178
ltibia 23.3729
lfoot -7.13913 14.2548
ltoes -35.4722
8
root 7.43496 20.3161 6.37206 -159.325 0.730329 -178.766
lowerback -13.9782 1.48985 -1.99365
upperback -6.18616 3.09056 -0.747762
thorax 1.26211 1.92924 0.805017
lowerneck -25.8208 11.487 9.95537
upperneck 23.6676 14.1105 -6.55599
head 13.4576 6.11756 -1.40468
rclavicle 2.63638e-014 3.97569e-016
rhumerus -36.4304 -11.9401 -74.9618
rradius 32.9088
rwrist -3.19405
rhand -11.7827 -17.9958
rfingers 7.12502
rthumb 14.2664 -47.4857
lclavicle 2.63638e-014 3.97569e-016
lhumerus -41.0654 0.435151 75.2616
lradius 25.0425
lwrist 40.7993
lhand -26.085 -0.335055
lfingers 7.12502
lthumb 0.463638 29.6442
rfemur -33.4504 17.5753 17.9104
rtibia 35.6446
rfoot -18.7226 -13.0108
rtoes -8.81802
lfemur -28.9603 -7.35824 -22.7336
ltibia 23.397
lfoot -7.18684 14.0656
ltoes -35.504
9
root 7.42548 20.3134 6.37039 -159.235 0.436516 -178.794
lowerback -14.1373 1.49429 -1.97463
upperback -6.21088 3.11098 -0.730365
thorax 1.3206 1.94465 0.822147
lowerneck -25.4732 11.7044 10.2253
upperneck 23.6062 14.3614 -6.61165
head 13.4176 6.25434 -1.42548
rclavicle 4.35835e-014 1.23246e-014
rhumerus -36.7039 -12.2583 -74.7292
rradius 32.8251
rwrist -3.18467
rhand -11.8051 -17.9548
rfingers 7.12502
rthumb 14.2448 -47.4463
lclavicle 4.35835e-014 1.23246e-014
lhumerus -41.1079 0.267936 75.1922
lradius 25.1754
lwrist 40.9516
lhand -26.034 -0.458216
lfingers 7.12502
lthumb 0.512948 29.5209
rfemur -33.5503 17.5699 17.8513
rtibia 35.7608
rfoot -18.7809 -13.3324
rtoes -8.81006
lfemur -29.1233 -7.49292 -22.7396
ltibia 23.4394
lfoot -7.24196 13.8699
ltoes -35.5452
